<svg xmlns="http://www.w3.org/2000/svg" fill="none" viewBox="-0.5 -0.5 24 24" id="Delete--Streamline-Rounded-Material.svg" height="24" width="24"><desc>Delete Streamline Icon: https://streamlinehq.com</desc><path fill="#000000" d="M6.253125000000001 20.125c-0.3953125 0 -0.7337 -0.14077916666666668 -1.0151145833333335 -0.4223854166666667 -0.28160625 -0.28141458333333336 -0.4223854166666667 -0.6198020833333334 -0.4223854166666667 -1.0151145833333335V5.03125H4.552083333333334c-0.20364583333333333 0 -0.374310625 -0.06933541666666666 -0.5119895833333333 -0.20795833333333333C3.9022518749999997 4.6848125 3.8333333333333335 4.513112708333334 3.8333333333333335 4.3081875c0 -0.20476229166666668 0.06891854166666668 -0.375029375 0.20676041666666667 -0.5107916666666668C4.177772708333333 3.661633541666667 4.3484375 3.59375 4.552083333333334 3.59375h3.785416666666667c0 -0.20763729166666667 0.06890416666666667 -0.379341875 0.20676041666666667 -0.5151041666666667C8.681925 2.9428835416666668 8.852604166666667 2.875 9.05625 2.875h4.8875c0.20364583333333333 0 0.37437291666666667 0.068841875 0.5122291666666666 0.20652083333333335 0.13766458333333334 0.137841875 0.20652083333333335 0.3085833333333334 0.20652083333333335 0.5122291666666666h3.785416666666667c0.20364583333333333 0 0.37437291666666667 0.06932104166666667 0.5122291666666666 0.20795833333333333 0.13766458333333334 0.13847916666666665 0.20652083333333335 0.3101789583333333 0.20652083333333335 0.5151041666666667 0 0.20476229166666668 -0.06885625 0.375029375 -0.20652083333333335 0.5107916666666668 -0.13785625 0.13574791666666666 -0.3085833333333334 0.20364583333333333 -0.5122291666666666 0.20364583333333333h-0.2635416666666667V18.6875c0 0.3953125 -0.14073125 0.7337 -0.42214583333333333 1.0151145833333335 -0.28160625 0.28160625 -0.6200416666666667 0.4223854166666667 -1.0153541666666668 0.4223854166666667h-10.49375Zm10.49375 -15.09375h-10.49375V18.6875h10.49375V5.03125ZM9.515770833333335 16.627083333333335c0.20474791666666667 0 0.37504375 -0.06890416666666667 0.5107916666666668 -0.20676041666666667 0.13574791666666666 -0.13766458333333334 0.20364583333333333 -0.30834374999999997 0.20364583333333333 -0.5119895833333333V7.786458333333334c0 -0.20364583333333333 -0.06933541666666666 -0.37437291666666667 -0.20795833333333333 -0.5122291666666666 -0.13847916666666665 -0.13766458333333334 -0.31016458333333335 -0.20652083333333335 -0.5151041666666667 -0.20652083333333335 -0.20474791666666667 0 -0.37504375 0.06885625 -0.5107916666666668 0.20652083333333335 -0.13574791666666666 0.13785625 -0.20364583333333333 0.3085833333333334 -0.20364583333333333 0.5122291666666666V15.908333333333335c0 0.20364583333333333 0.06933541666666666 0.374325 0.20795833333333333 0.5119895833333333 0.13847916666666665 0.13785625 0.31016458333333335 0.20676041666666667 0.5151041666666667 0.20676041666666667Zm3.9770833333333337 0c0.20474791666666667 0 0.37504375 -0.06890416666666667 0.5107916666666668 -0.20676041666666667 0.13574791666666666 -0.13766458333333334 0.20364583333333333 -0.30834374999999997 0.20364583333333333 -0.5119895833333333V7.786458333333334c0 -0.20364583333333333 -0.06933541666666666 -0.37437291666666667 -0.20795833333333333 -0.5122291666666666 -0.13847916666666665 -0.13766458333333334 -0.31016458333333335 -0.20652083333333335 -0.5151041666666667 -0.20652083333333335 -0.20474791666666667 0 -0.37504375 0.06885625 -0.5107916666666668 0.20652083333333335 -0.13574791666666666 0.13785625 -0.20364583333333333 0.3085833333333334 -0.20364583333333333 0.5122291666666666V15.908333333333335c0 0.20364583333333333 0.06933541666666666 0.374325 0.20795833333333333 0.5119895833333333 0.13847916666666665 0.13785625 0.31016458333333335 0.20676041666666667 0.5151041666666667 0.20676041666666667Z" stroke-width="1"></path></svg>