<?xml version="1.0" standalone="no"?>
<!DOCTYPE svg PUBLIC "-//W3C//DTD SVG 20010904//EN"
 "http://www.w3.org/TR/2001/REC-SVG-20010904/DTD/svg10.dtd">
<svg version="1.0" xmlns="http://www.w3.org/2000/svg"
 width="250.000000pt" height="250.000000pt" viewBox="0 0 250.000000 250.000000"
 preserveAspectRatio="xMidYMid meet">

<g transform="translate(0.000000,250.000000) scale(0.100000,-0.100000)"
fill="#000000" stroke="none">
<path d="M1170 2354 c-200 -31 -332 -68 -444 -127 -272 -141 -501 -383 -650
-687 -67 -136 -72 -175 -37 -277 61 -177 193 -374 357 -533 138 -133 296 -232
485 -303 133 -50 185 -44 229 28 47 76 4 147 -114 191 -178 65 -332 162 -450
282 -105 107 -157 178 -226 313 l-59 116 59 113 c142 267 296 424 525 534 177
86 328 115 497 96 383 -43 688 -283 888 -701 l22 -45 -57 -113 c-75 -150 -76
-203 -3 -246 38 -22 89 -22 126 0 64 38 175 277 174 372 -2 84 -92 269 -212
436 -61 84 -246 266 -333 328 -132 93 -274 154 -452 194 -103 23 -269 38 -325
29z"/>
<path d="M1126 1839 c-114 -28 -245 -134 -303 -245 -106 -201 -73 -424 87
-584 100 -100 202 -140 353 -140 130 0 234 40 325 125 259 241 196 653 -123
811 -73 36 -82 38 -188 40 -62 2 -129 -1 -151 -7z m201 -242 c172 -64 230
-273 112 -402 -57 -62 -99 -79 -186 -76 -87 2 -109 9 -158 53 -75 65 -103 174
-70 267 22 65 62 108 128 141 65 32 118 37 174 17z"/>
<path d="M1883 960 c-47 -29 -56 -54 -61 -177 l-5 -113 -76 -1 c-118 -1 -171
-12 -198 -43 -31 -36 -38 -70 -24 -117 19 -64 54 -79 187 -79 l112 0 4 -119
c5 -134 16 -163 74 -187 71 -30 147 11 158 84 3 20 8 76 11 123 l7 86 119 10
c131 12 150 20 176 81 19 46 3 104 -39 134 -28 19 -47 23 -150 26 l-118 4 0
105 c0 124 -13 163 -63 186 -46 22 -75 21 -114 -3z"/>
</g>
</svg>
